<?xml version="1.0" encoding="utf-8"?><!-- Uploaded to: SVG Repo, www.svgrepo.com, Generator: SVG Repo Mixer Tools -->
<svg width="800px" height="800px" viewBox="0 0 24 24" fill="none" xmlns="http://www.w3.org/2000/svg">
<path d="M20.2236 12.5257C19.6384 9.40452 19.3458 7.84393 18.2349 6.92196C17.124 6 15.5362 6 12.3606 6H11.6394C8.46386 6 6.87608 6 5.76518 6.92196C4.65428 7.84393 4.36167 9.40452 3.77645 12.5257C2.95353 16.9146 2.54207 19.1091 3.74169 20.5545C4.94131 22 7.17402 22 11.6394 22H12.3606C16.826 22 19.0587 22 20.2584 20.5545C20.9543 19.7159 21.108 18.6252 20.9537 17" stroke="#1C274C" stroke-width="1.5" stroke-linecap="round"/>
<path d="M9 6V5C9 3.34315 10.3431 2 12 2C13.6569 2 15 3.34315 15 5V6" stroke="#1C274C" stroke-width="1.5" stroke-linecap="round"/>
</svg>